<svg width="71" height="72" viewBox="0 0 71 72" fill="none" xmlns="http://www.w3.org/2000/svg">
<path d="M45.42 22.798C46.26 22.798 47.08 22.88 47.879 23.03V2.238H42.96V23.03C43.758 22.88 44.579 22.798 45.42 22.798ZM38.062 25.04L17.995 4.463L13.887 8.568L34.479 28.618C35.4322 27.2055 36.6487 25.99 38.062 25.038V25.04ZM34.443 28.692L5.587 16.097L3.19 21.875L32.505 33.358C32.8419 31.6919 33.4995 30.1072 34.441 28.692H34.443ZM58.25 32.866L69.851 27.803L68.483 24.502L56.698 29.118C57.4069 30.2791 57.9305 31.5436 58.25 32.866ZM52.547 24.895L58.998 9.037L54.868 7.329L48.208 23.097C49.7501 23.4303 51.2194 24.0394 52.545 24.895H52.547ZM56.16 28.341L66.18 18.067L63.333 15.224L53.051 25.234C54.251 26.09 55.304 27.14 56.158 28.339L56.16 28.341ZM42.788 23.059L33.406 0L28.45 2.05L38.136 24.986C39.5477 24.0494 41.1275 23.395 42.788 23.059ZM45.42 49.153C44.58 49.153 43.759 49.071 42.96 48.921V69.766H47.879V48.921C47.081 49.071 46.261 49.153 45.42 49.153ZM48.208 48.852L54.885 64.664L59.016 62.954L52.546 47.057C51.22 47.9125 49.7504 48.5216 48.208 48.855V48.852ZM53.053 46.715L63.356 56.748L66.201 53.905L56.161 43.61C55.3047 44.8117 54.2535 45.8618 53.051 46.717L53.053 46.715ZM32.503 38.593L3.164 50.084L5.56 55.862L34.441 43.26C33.4994 41.8456 32.8422 40.2615 32.506 38.596L32.503 38.594V38.593ZM38.14 46.962L28.434 69.95L33.388 72L42.793 48.89C41.1324 48.5537 39.5517 47.899 38.14 46.962ZM34.477 43.33L13.852 63.412L17.96 67.517L38.06 46.908C36.6464 45.9561 35.4295 44.7405 34.476 43.328L34.477 43.33ZM70.542 37.548L0 39.308L0.002 32.608L70.542 34.421V37.548Z" fill="white"/>
</svg>
