<svg width="247" height="72" viewBox="0 0 247 72" fill="none" xmlns="http://www.w3.org/2000/svg">
<g clip-path="url(#clip0_2_73)">
<path d="M110.713 20.98V24.821H96.541V34.068H110.087V37.91H96.541V47.514H110.713V51.355H92.338V20.98H110.713ZM115.654 49.926C114.149 48.675 113.335 46.993 113.217 44.878H117.33C117.449 45.921 117.889 46.754 118.649 47.379C119.409 48.005 120.325 48.318 121.398 48.318C122.471 48.318 123.35 48.078 123.947 47.603C124.544 47.127 124.841 46.546 124.841 45.861C124.841 44.996 124.483 44.349 123.768 43.917C123.053 43.487 121.935 43.047 120.415 42.6C119.013 42.182 117.86 41.758 116.95 41.327C116.034 40.8895 115.237 40.2382 114.625 39.428C113.984 38.595 113.664 37.492 113.664 36.122C113.664 35.079 113.948 34.09 114.513 33.152C115.079 32.214 115.906 31.454 116.995 30.874C118.083 30.293 119.387 30.003 120.907 30.003C123.053 30.003 124.81 30.583 126.182 31.745C127.552 32.906 128.344 34.53 128.552 36.614H124.439C124.289 35.631 123.909 34.864 123.298 34.314C122.688 33.762 121.89 33.487 120.907 33.487C120.012 33.487 119.266 33.726 118.671 34.202C118.074 34.677 117.777 35.318 117.777 36.122C117.777 36.926 118.126 37.581 118.828 37.999C119.527 38.416 120.638 38.863 122.158 39.339C123.56 39.725 124.72 40.136 125.646 40.567C126.575 41.0035 127.381 41.6635 127.993 42.488C128.634 43.337 128.954 44.46 128.954 45.861C128.964 46.9603 128.619 48.0334 127.97 48.921C127.313 49.83 126.412 50.535 125.266 51.042C124.119 51.549 122.829 51.802 121.398 51.802C119.074 51.802 117.158 51.176 115.654 49.926ZM148.502 31.298C150.038 32.162 151.267 33.42 152.19 35.073C153.114 36.725 153.576 38.669 153.576 40.903C153.576 43.136 153.114 45.079 152.19 46.732C151.267 48.385 150.038 49.642 148.502 50.506C146.982 51.3661 145.263 51.813 143.517 51.802C142.026 51.802 140.662 51.512 139.426 50.931C138.223 50.3779 137.194 49.5048 136.453 48.407V60.11H132.34V30.449H135.961L136.319 33.621C137.057 32.4653 138.102 31.5374 139.337 30.941C140.604 30.315 141.997 30.003 143.517 30.003C145.305 30.003 146.966 30.433 148.502 31.298ZM146.222 47.201C147.219 46.636 148.01 45.809 148.591 44.721C149.173 43.634 149.463 42.361 149.463 40.902C149.463 39.444 149.173 38.171 148.591 37.082C148.01 35.995 147.221 35.169 146.222 34.604C145.22 34.0374 144.087 33.7443 142.936 33.754C141.789 33.7459 140.662 34.0471 139.672 34.626C138.66 35.206 137.846 36.04 137.236 37.128C136.625 38.215 136.319 39.473 136.319 40.902C136.319 42.332 136.625 43.589 137.236 44.677C137.846 45.765 138.66 46.597 139.672 47.178C140.663 47.7529 141.79 48.0536 142.936 48.049C144.086 48.0557 145.219 47.7635 146.222 47.201ZM156.523 38.133C156.523 35.602 157.238 33.614 158.668 32.169C160.099 30.724 161.977 30.003 164.302 30.003C165.046 30.003 165.806 30.108 166.582 30.315V34.068C166.313 34.038 165.777 34.023 164.972 34.023C163.571 34.023 162.498 34.409 161.753 35.184C161.009 35.959 160.636 37.268 160.636 39.115V51.355H156.523V38.133ZM187.979 42.51H171.75C172.047 44.208 172.771 45.555 173.918 46.553C175.065 47.551 176.444 48.049 178.054 48.049C180.647 48.049 182.404 47.067 183.329 45.101H187.532C186.906 47.127 185.737 48.749 184.022 49.971C182.308 51.192 180.318 51.801 178.054 51.801C176.055 51.801 174.254 51.339 172.644 50.417C171.035 49.495 169.776 48.206 168.866 46.553C167.956 44.9 167.503 43.017 167.503 40.903C167.503 38.787 167.95 36.904 168.844 35.251C169.704 33.633 171.006 32.2929 172.599 31.387C174.209 30.465 176.026 30.003 178.054 30.003C179.871 30.003 181.548 30.478 183.083 31.432C184.619 32.386 185.833 33.695 186.727 35.363C187.621 37.032 188.068 38.876 188.068 40.903C188.075 41.4401 188.046 41.977 187.979 42.51ZM173.963 35.207C172.845 36.174 172.123 37.478 171.795 39.115H183.821C183.671 37.657 183.061 36.397 181.988 35.341C180.915 34.284 179.603 33.755 178.054 33.755C176.505 33.755 175.081 34.24 173.963 35.207ZM192.343 49.926C190.838 48.675 190.025 46.993 189.906 44.878H194.019C194.138 45.921 194.578 46.754 195.338 47.379C196.098 48.005 197.015 48.318 198.088 48.318C199.161 48.318 200.039 48.078 200.636 47.603C201.233 47.127 201.53 46.546 201.53 45.861C201.53 44.996 201.173 44.349 200.457 43.917C199.742 43.487 198.624 43.047 197.104 42.6C195.703 42.182 194.549 41.758 193.639 41.327C192.723 40.8895 191.926 40.2381 191.315 39.428C190.673 38.595 190.353 37.492 190.353 36.122C190.353 35.079 190.637 34.09 191.203 33.152C191.768 32.214 192.596 31.454 193.684 30.874C194.773 30.293 196.076 30.003 197.596 30.003C199.742 30.003 201.499 30.583 202.872 31.745C204.242 32.906 205.033 34.53 205.241 36.614H201.128C200.978 35.631 200.598 34.864 199.988 34.314C199.378 33.762 198.58 33.487 197.596 33.487C196.702 33.487 195.955 33.726 195.361 34.202C194.764 34.677 194.467 35.318 194.467 36.122C194.467 36.926 194.815 37.581 195.517 37.999C196.217 38.416 197.328 38.863 198.848 39.339C200.249 39.725 201.41 40.136 202.335 40.567C203.264 41.0033 204.071 41.6633 204.682 42.488C205.324 43.337 205.643 44.46 205.643 45.861C205.643 46.993 205.315 48.011 204.66 48.921C204.003 49.83 203.102 50.535 201.955 51.042C200.808 51.549 199.518 51.802 198.088 51.802C195.763 51.802 193.847 51.176 192.343 49.926ZM210.132 49.926C208.627 48.675 207.814 46.993 207.695 44.878H211.808C211.927 45.921 212.367 46.754 213.127 47.379C213.887 48.005 214.804 48.318 215.877 48.318C216.95 48.318 217.828 48.078 218.425 47.603C219.022 47.127 219.319 46.546 219.319 45.861C219.319 44.996 218.961 44.349 218.246 43.917C217.531 43.487 216.413 43.047 214.893 42.6C213.491 42.182 212.338 41.758 211.428 41.327C210.512 40.8895 209.715 40.2382 209.103 39.428C208.462 38.595 208.142 37.492 208.142 36.122C208.142 35.079 208.426 34.09 208.992 33.152C209.557 32.214 210.384 31.454 211.473 30.874C212.561 30.293 213.865 30.003 215.385 30.003C217.531 30.003 219.288 30.583 220.66 31.745C222.031 32.906 222.822 34.53 223.03 36.614H218.917C218.767 35.631 218.387 34.864 217.777 34.314C217.166 33.762 216.368 33.487 215.385 33.487C214.491 33.487 213.744 33.726 213.149 34.202C212.553 34.677 212.255 35.318 212.255 36.122C212.255 36.926 212.604 37.581 213.306 37.999C214.006 38.416 215.117 38.863 216.637 39.339C218.038 39.725 219.198 40.136 220.124 40.567C221.053 41.0035 221.859 41.6635 222.471 42.488C223.112 43.337 223.432 44.46 223.432 45.861C223.432 46.993 223.104 48.011 222.449 48.921C221.791 49.83 220.89 50.535 219.744 51.042C218.597 51.549 217.307 51.802 215.877 51.802C213.552 51.802 211.636 51.176 210.132 49.926ZM230.353 50.35C228.728 49.4117 227.384 48.0541 226.463 46.419C225.525 44.766 225.055 42.928 225.055 40.902C225.055 38.876 225.525 37.038 226.463 35.385C227.384 33.7503 228.728 32.393 230.353 31.455C232.007 30.487 233.847 30.003 235.874 30.003C237.902 30.003 239.742 30.487 241.396 31.454C243.021 32.3923 244.364 33.75 245.285 35.385C246.224 37.038 246.694 38.876 246.694 40.902C246.694 42.928 246.224 44.766 245.285 46.419C244.364 48.054 243.021 49.4117 241.396 50.35C239.742 51.317 237.902 51.802 235.874 51.802C233.847 51.802 232.007 51.317 230.353 50.35ZM239.317 47.134C240.329 46.524 241.127 45.675 241.709 44.587C242.29 43.5 242.58 42.271 242.58 40.902C242.58 39.533 242.29 38.305 241.709 37.217C241.127 36.129 240.329 35.28 239.317 34.671C238.304 34.061 237.155 33.755 235.874 33.755C234.593 33.755 233.444 34.061 232.432 34.671C231.417 35.281 230.621 36.129 230.04 37.217C229.459 38.305 229.168 39.533 229.168 40.902C229.168 42.272 229.459 43.5 230.04 44.587C230.621 45.675 231.419 46.524 232.432 47.134C233.444 47.744 234.593 48.049 235.874 48.049C237.155 48.049 238.304 47.743 239.317 47.134ZM45.42 22.798C46.261 22.798 47.081 22.881 47.88 23.03V2.238H42.962V23.03C43.76 22.88 44.58 22.798 45.421 22.798H45.42ZM38.059 25.04L17.992 4.464L13.883 8.57L34.475 28.62C35.4286 27.2075 36.6454 25.992 38.059 25.04ZM34.43 28.692L5.572 16.097L3.176 21.875L32.49 33.358C32.827 31.6919 33.4845 30.1072 34.426 28.692H34.428H34.43ZM58.236 32.866L69.838 27.803L68.469 24.502L56.685 29.118C57.3932 30.2793 57.9171 31.5438 58.236 32.866ZM52.556 24.895L59.007 9.037L54.877 7.328L48.217 23.097C49.787 23.437 51.248 24.053 52.554 24.895H52.556ZM56.168 28.341L66.187 18.067L63.341 15.224L53.059 25.234C54.259 26.09 55.312 27.14 56.166 28.339L56.168 28.341ZM42.792 23.059L33.41 0L28.454 2.05L38.14 24.986C39.5517 24.0494 41.1315 23.395 42.792 23.059ZM45.42 49.153C44.58 49.153 43.76 49.071 42.962 48.921V69.766H47.879V48.921C47.082 49.071 46.261 49.153 45.421 49.153H45.42ZM48.217 48.852L54.894 64.663L59.025 62.955L52.556 47.056C51.2297 47.9116 49.7598 48.5207 48.217 48.854V48.852ZM53.059 46.715L63.362 56.748L66.207 53.904L56.167 43.61C55.3107 44.8117 54.2595 45.8618 53.057 46.717L53.059 46.715ZM32.494 38.593L3.154 50.084L5.551 55.862L34.43 43.26C33.4884 41.8456 32.8312 40.2615 32.495 38.596L32.493 38.594L32.494 38.593ZM38.14 46.962L28.432 69.95L33.388 72L42.792 48.89C41.1314 48.5536 39.5517 47.8989 38.14 46.962ZM34.476 43.33L13.851 63.412L17.959 67.517L38.057 46.908C36.6437 45.956 35.4272 44.7405 34.474 43.328L34.476 43.33ZM70.542 37.548L0 39.308L0.002 32.608L70.542 34.421V37.548Z" fill="white"/>
</g>
<defs>
<clipPath id="clip0_2_73">
<rect width="247" height="72" fill="white"/>
</clipPath>
</defs>
</svg>
